# 3ds Max Wavefront OBJ Exporter v0.97b - (c)2007 guruware
# File Created: 10.12.2018 15:11:52

mtllib sChair.mtl

#
# object Rectangle60
#

v  -17.1630 -6.1045 26.1781
v  16.9336 -6.1045 26.2688
v  16.7035 -2.1045 25.9300
v  -16.8712 -2.1045 25.8406
v  20.9443 -6.1045 22.2795
v  21.0522 -6.1046 -18.3059
v  20.8210 -2.1046 -18.2036
v  20.7142 -2.1045 21.9406
v  17.0629 -6.1046 -22.3165
v  -17.0337 -6.1046 -22.4073
v  -16.7431 -2.1045 -22.3035
v  16.8316 -2.1045 -22.2142
v  -21.0443 -6.1046 -18.4179
v  -21.1523 -6.1046 22.1675
v  -20.8606 -2.1045 21.8300
v  -20.7538 -2.1046 -18.3142
v  -17.1523 -6.1045 22.1781
v  -17.0443 -6.1046 -18.4073
v  17.0523 -6.1046 -18.3166
v  16.9443 -6.1046 22.2689
v  -16.7538 -2.1046 -18.3035
v  -16.8606 -2.1046 21.8407
v  16.7142 -2.1045 21.9300
v  16.8210 -2.1046 -18.2142
v  20.9336 -6.1045 26.2795
v  20.7035 -2.1045 25.9406
v  -20.8712 -2.1045 25.8300
v  -21.1630 -6.1045 26.1675
v  -21.0337 -6.1046 -22.4179
v  -20.7431 -2.1046 -22.3142
v  20.8316 -2.1046 -22.2036
v  21.0629 -6.1046 -22.3059
v  16.8417 33.7789 -25.9879
v  16.8523 33.7789 -29.9879
v  -16.7224 33.7789 -30.0772
v  -16.7331 33.7789 -26.0773
v  -22.0231 -33.7789 -21.8950
v  -22.0124 -33.7789 -25.8950
v  -18.0124 -33.7789 -25.8844
v  -18.0231 -33.7789 -21.8844
v  -18.1504 -33.7789 25.9810
v  -18.1611 -33.7789 29.9810
v  -22.1611 -33.7789 29.9704
v  -22.1504 -33.7789 25.9704
v  22.0231 -33.7789 26.0879
v  22.0124 -33.7789 30.0879
v  18.0124 -33.7789 30.0772
v  18.0231 -33.7789 26.0773
v  18.1504 -33.7789 -21.7882
v  18.1611 -33.7789 -25.7882
v  22.1611 -33.7789 -25.7775
v  22.1504 -33.7789 -21.7775
v  -20.7224 33.7789 -30.0879
v  -20.7331 33.7789 -26.0879
v  20.8417 33.7789 -25.9773
v  20.8523 33.7789 -29.9773
v  20.8419 15.8371 -26.0904
v  20.8313 15.8371 -22.0904
v  16.8420 15.8371 -26.1011
v  -16.7328 15.8371 -26.1904
v  -20.7328 15.8371 -26.2010
v  -20.7434 15.8371 -22.2010
v  -16.7434 15.8371 -22.1904
v  16.8313 15.8371 -22.1011
# 64 vertices

vn -0.0027 0.0843 0.9964
vn 0.9983 0.0577 0.0027
vn 0.0027 0.0257 -0.9997
vn -0.9974 0.0725 -0.0027
vn 0.0000 -1.0000 0.0000
vn -0.0000 -1.0000 0.0000
vn 0.0000 1.0000 -0.0000
vn -0.0000 1.0000 -0.0000
vn 0.0000 1.0000 0.0000
vn 0.0000 -1.0000 -0.0000
vn -0.9994 0.0357 -0.0027
vn 0.0026 0.1246 -0.9922
vn 0.9994 -0.0357 0.0027
vn -0.0026 -0.1246 0.9922
vn -0.0026 0.1362 0.9907
vn 0.0026 -0.1362 -0.9907
vn 0.9992 0.0393 0.0027
vn -0.9992 -0.0393 -0.0027
vn 1.0000 0.0000 0.0027
vn 0.0026 -0.2117 -0.9773
vn -1.0000 -0.0000 -0.0027
vn -0.0026 0.2117 0.9773
vn 1.0000 -0.0000 0.0027
# 23 vertex normals

vt 0.1580 0.1395 1.0245
vt 0.8400 0.1395 1.0245
vt 0.8353 0.2195 1.0177
vt 0.1638 0.2195 1.0177
vt 0.0555 0.1395 0.0800
vt 0.8672 0.1395 0.0800
vt 0.8651 0.2195 0.0847
vt 0.0623 0.2195 0.0847
vt 0.1600 0.1395 0.0528
vt 0.8420 0.1395 0.0528
vt 0.8362 0.2195 0.0549
vt 0.1647 0.2195 0.0549
vt 0.1328 0.1395 0.9220
vt 0.9445 0.1395 0.9220
vt 0.9377 0.2195 0.9162
vt 0.1349 0.2195 0.9162
vt 0.1580 0.9445 0.1395
vt 0.1580 0.1328 0.1395
vt 0.8400 0.1328 0.1395
vt 0.8400 0.9445 0.1395
vt 0.8362 0.1349 0.2195
vt 0.8362 0.9377 0.2195
vt 0.1647 0.9377 0.2195
vt 0.1647 0.1349 0.2195
vt 0.9200 0.1395 1.0245
vt 0.9153 0.2195 1.0177
vt 0.0838 0.2195 1.0177
vt 0.0780 0.1395 1.0245
vt 0.9220 0.1395 0.0528
vt 0.9162 0.2195 0.0549
vt 0.0847 0.2195 0.0549
vt 0.0800 0.1395 0.0528
vt 0.0780 0.9445 0.1395
vt 0.0780 0.1328 0.1395
vt 0.9200 0.1328 0.1395
vt 0.9200 0.9445 0.1395
vt 0.9162 0.1349 0.2195
vt 0.9162 0.9377 0.2195
vt 0.0847 0.9377 0.2195
vt 0.0847 0.1349 0.2195
vt 0.9472 0.1395 0.0800
vt 0.9451 0.2195 0.0847
vt -0.0177 0.2195 0.0847
vt -0.0245 0.1395 0.0800
vt 1.0245 0.1395 0.9220
vt 1.0177 0.2195 0.9162
vt 0.0549 0.2195 0.9162
vt 0.0528 0.1395 0.9220
vt 0.1580 0.0528 0.1395
vt 0.8400 0.0528 0.1395
vt 0.8400 1.0245 0.1395
vt 0.1580 1.0245 0.1395
vt 0.8362 1.0177 0.2195
vt 0.1647 1.0177 0.2195
vt 0.1647 -0.0206 0.9372
vt 0.1647 -0.1006 0.9372
vt 0.8362 -0.1006 0.9372
vt 0.8362 -0.0206 0.9372
vt 0.0583 0.0633 -0.4140
vt 0.0583 -0.0167 -0.4140
vt 0.1383 -0.0167 -0.4140
vt 0.1383 0.0633 -0.4140
vt 0.1383 1.0206 -0.4140
vt 0.1383 1.1006 -0.4140
vt 0.0583 1.1006 -0.4140
vt 0.0583 1.0206 -0.4140
vt 0.9417 1.0206 -0.4140
vt 0.9417 1.1006 -0.4140
vt 0.8617 1.1006 -0.4140
vt 0.8617 1.0206 -0.4140
vt 0.8617 0.0633 -0.4140
vt 0.8617 -0.0167 -0.4140
vt 0.9417 -0.0167 -0.4140
vt 0.9417 0.0633 -0.4140
vt 0.9162 1.0177 0.2195
vt 0.9162 -0.1006 0.9372
vt 0.9162 -0.0206 0.9372
vt 0.0847 -0.0206 0.9372
vt 0.0847 -0.1006 0.9372
vt 0.0847 1.0177 0.2195
vt -0.0167 -0.4140 0.9417
vt 0.0633 -0.4140 0.9417
vt 0.8617 -0.4140 -0.0167
vt 0.9417 -0.4140 -0.0167
vt 0.9472 0.1395 0.8420
vt 0.8672 0.1395 0.8420
vt 0.9367 -0.4140 0.8617
vt 1.0167 -0.4140 0.8617
vt 0.1580 0.1395 0.1328
vt 0.0780 0.1395 0.1328
vt 0.0583 -0.4140 0.0633
vt 0.1383 -0.4140 0.0633
vt 0.0583 -0.4140 1.1006
vt 0.1383 -0.4140 1.1006
vt 1.0206 -0.4140 0.9417
vt 1.1006 -0.4140 0.9417
vt 0.9220 0.1395 0.9445
vt 0.8420 0.1395 0.9445
vt 0.8617 -0.4140 1.0206
vt 0.9417 -0.4140 1.0206
vt 0.0555 0.1395 0.8420
vt -0.0245 0.1395 0.8420
vt -0.1006 -0.4140 0.8617
vt -0.0206 -0.4140 0.8617
vt -0.1006 -0.4140 0.0583
vt -0.0206 -0.4140 0.0583
vt 0.8617 -0.4140 1.1006
vt 0.9417 -0.4140 1.1006
vt 1.0245 0.1395 0.1600
vt 0.9445 0.1395 0.1600
vt 1.0206 -0.4140 0.1383
vt 1.1006 -0.4140 0.1383
vt 0.1600 0.1395 0.9445
vt 0.0800 0.1395 0.9445
vt 0.0583 -0.4140 1.0206
vt 0.1383 -0.4140 1.0206
vt 0.0583 -0.4140 -0.0167
vt 0.1383 -0.4140 -0.0167
vt 0.9367 -0.4140 0.0583
vt 1.0167 -0.4140 0.0583
vt 0.9200 0.1395 0.1328
vt 0.8400 0.1395 0.1328
vt 0.8617 -0.4140 0.0633
vt 0.9417 -0.4140 0.0633
vt 0.1328 0.1395 0.1600
vt 0.0528 0.1395 0.1600
vt -0.0167 -0.4140 0.1383
vt 0.0633 -0.4140 0.1383
vt 1.0229 0.5783 0.0847
vt 0.9429 0.5783 0.0847
vt 0.1647 0.5783 -0.0229
vt 0.0847 0.5783 -0.0229
vt 0.8362 0.5783 -0.0229
vt 0.9162 0.5783 -0.0229
vt 0.0571 0.5783 0.9162
vt -0.0229 0.5783 0.9162
vt 0.0838 0.2195 0.1349
vt 0.1638 0.2195 0.1349
vt 0.1638 0.5783 0.0571
vt 0.0838 0.5783 0.0571
vt 0.8353 0.2195 0.1349
vt 0.8353 0.5783 0.0571
vt 0.9153 0.2195 0.1349
vt 0.9153 0.5783 0.0571
vt 1.1006 0.9372 0.0847
vt 1.0206 0.9372 0.0847
vt 0.1647 0.9372 -0.1006
vt 0.0847 0.9372 -0.1006
vt 0.8362 0.9372 -0.1006
vt 0.9162 0.9372 -0.1006
vt -0.0206 0.9372 0.9162
vt -0.1006 0.9372 0.9162
vt 0.1638 0.9372 -0.0206
vt 0.0838 0.9372 -0.0206
vt 0.8353 0.9372 -0.0206
vt 0.9153 0.9372 -0.0206
# 156 texture coords

g Rectangle60
usemtl around
s 1
f 1/1/1 2/2/1 3/3/1 4/4/1 
s 4
f 5/5/2 6/6/2 7/7/2 8/8/2 
s 2
f 9/9/3 10/10/3 11/11/3 12/12/3 
s 4
f 13/13/4 14/14/4 15/15/4 16/16/4 
usemtl seat
s 16
f 17/17/5 18/18/6 19/19/5 20/20/5 
f 21/21/7 22/22/7 23/23/8 24/24/8 
usemtl leg
s 16
f 37/59/10 38/60/10 39/61/10 40/62/10 
f 41/63/10 42/64/10 43/65/10 44/66/10 
f 45/67/10 46/68/10 47/69/10 48/70/10 
f 49/71/10 50/72/10 51/73/10 52/74/10 
s off
f 13/13/11 29/48/11 38/81/11 37/82/11 
f 29/29/12 10/10/12 39/83/12 38/84/12 
f 10/85/13 18/86/13 40/87/13 39/88/13 
f 18/89/14 13/90/14 37/91/14 40/92/14 
f 1/1/15 28/28/15 43/93/15 42/94/15 
f 28/45/11 14/14/11 44/95/11 43/96/11 
f 14/97/16 17/98/16 41/99/16 44/100/16 
f 17/101/13 1/102/13 42/103/13 41/104/13 
f 5/5/17 25/44/17 46/105/17 45/106/17 
f 25/25/15 2/2/15 47/107/15 46/108/15 
f 2/109/18 20/110/18 48/111/18 47/112/18 
f 20/113/16 5/114/16 45/115/16 48/116/16 
f 9/9/12 32/32/12 51/117/12 50/118/12 
f 32/41/17 6/6/17 52/119/17 51/120/17 
f 6/121/14 19/122/14 49/123/14 52/124/14 
f 19/125/18 9/126/18 50/127/18 49/128/18 
usemtl back
s 1
f 2/2/1 25/25/1 26/26/1 3/3/1 
f 4/4/1 27/27/1 28/28/1 1/1/1 
s 2
f 10/10/3 29/29/3 30/30/3 11/11/3 
f 12/12/3 31/31/3 32/32/3 9/9/3 
s 16
f 14/33/5 13/34/5 18/18/6 17/17/5 
f 6/35/6 5/36/5 20/20/5 19/19/5 
f 16/37/7 15/38/7 22/22/7 21/21/7 
f 8/39/7 7/40/7 24/24/8 23/23/8 
s 4
f 6/6/2 32/41/2 31/42/2 7/7/2 
f 8/8/2 26/43/2 25/44/2 5/5/2 
f 14/14/4 28/45/4 27/46/4 15/15/4 
f 16/16/4 30/47/4 29/48/4 13/13/4 
s 16
f 18/18/6 10/49/6 9/50/6 19/19/5 
f 20/20/5 2/51/6 1/52/6 17/17/5 
f 22/22/7 4/53/8 3/54/7 23/23/8 
f 33/55/7 34/56/7 35/57/9 36/58/9 
f 15/38/7 27/75/7 4/53/8 22/22/7 
f 36/58/9 35/57/9 53/76/7 54/77/9 
f 55/78/7 56/79/7 34/56/7 33/55/7 
f 23/23/8 3/54/7 26/80/7 8/39/7 
s off
f 7/7/19 31/42/19 57/129/19 58/130/19 
f 31/31/20 12/12/20 59/131/20 57/132/20 
f 12/12/20 11/11/20 60/133/20 59/131/20 
f 11/11/20 30/30/20 61/134/20 60/133/20 
f 30/47/21 16/16/21 62/135/21 61/136/21 
f 16/137/22 21/138/22 63/139/22 62/140/22 
f 21/138/22 24/141/22 64/142/22 63/139/22 
f 24/141/22 7/143/22 58/144/22 64/142/22 
f 57/129/23 56/145/23 55/146/23 58/130/23 
f 59/131/20 34/147/20 56/148/20 57/132/20 
f 60/133/20 35/149/20 34/147/20 59/131/20 
f 61/134/20 53/150/20 35/149/20 60/133/20 
f 62/135/21 54/151/21 53/152/21 61/136/21 
f 63/139/22 36/153/22 54/154/22 62/140/22 
f 64/142/22 33/155/22 36/153/22 63/139/22 
f 58/144/22 55/156/22 33/155/22 64/142/22 
# 62 polygons

